<svg width="703" height="138" viewBox="0 0 703 138" fill="none" xmlns="http://www.w3.org/2000/svg">
<path d="M116.245 0.409668V79.3141L114.492 80.2703L58.0712 111.031V138H0V0.409668H31.0335V48.2008L57.798 33.6062L58.0712 33.7542L82.8206 47.2559V0.409668H116.245Z" fill="white"/>
<path d="M82.8203 0.409668V47.2559L58.0709 33.7542V33.4696L57.7976 33.6062L31.0332 48.2008V0.409668H82.8203Z" fill="#BD6FF5"/>
<path d="M135.747 78.4261V0.876465H163.115C170.503 0.876465 175.899 3.10778 179.303 7.55903C182.707 12.0103 184.403 17.5317 184.403 24.1231C184.403 31.9441 182.217 37.7957 177.834 41.6663C173.451 45.537 167.429 47.4723 159.745 47.4723H151.377V78.4261H135.735H135.747ZM151.389 12.386V35.9514H158.345C161.532 35.9514 164.059 34.9724 165.949 33.0256C167.828 31.0675 168.773 28.176 168.773 24.3395C168.773 16.3705 165.152 12.386 157.912 12.386H151.4H151.389Z" fill="white"/>
<path d="M200.695 37.9097H187.227V36.498C187.227 30.2025 189.105 25.6147 192.874 22.7572C196.642 19.8998 201.594 18.4653 207.753 18.4653C216.006 18.4653 221.608 19.9681 224.533 22.9735C227.47 25.979 228.928 30.453 228.928 36.3842V67.1217C228.928 71.6071 229.542 75.3753 230.772 78.4149H216.439C215.79 77.2537 215.175 75.2273 214.595 72.3357H214.379C212.716 75.307 210.758 77.3106 208.516 78.358C206.273 79.4053 203.267 79.929 199.499 79.929C194.718 79.929 191.166 78.2669 188.855 74.9313C186.533 71.5957 185.383 67.6909 185.383 63.2055C185.383 57.7752 186.555 53.7338 188.912 51.0927C191.268 48.4515 195.299 46.334 201.025 44.7402L207.867 42.896C210.474 42.1674 212.25 41.3022 213.183 40.289C214.128 39.2758 214.595 37.7958 214.595 35.8377C214.595 31.0563 212.272 28.6656 207.639 28.6656C203.006 28.6656 200.683 31.2043 200.683 36.2703V37.8983L200.695 37.9097ZM214.606 60.7237V48.9979C213.229 50.0794 211.532 50.9902 209.506 51.7074L206.25 52.9028C203.643 53.8477 201.901 55.0089 201.036 56.375C200.171 57.7411 199.738 59.4829 199.738 61.589C199.738 63.9797 200.205 65.9377 201.15 67.4519C202.095 68.9773 203.507 69.7287 205.385 69.7287C207.776 69.7287 209.905 68.966 211.794 67.4519C213.673 65.9264 214.618 63.6837 214.618 60.7124L214.606 60.7237Z" fill="white"/>
<path d="M277.708 41.0631H263.376C263.376 33.2422 261.133 29.3373 256.636 29.3373C253.164 29.3373 250.864 30.8401 249.737 33.8455C248.61 36.851 248.052 42.008 248.052 49.3281C248.052 56.6482 248.599 62.1468 249.68 65.1864C250.762 68.226 252.902 69.7515 256.09 69.7515C258.628 69.7515 260.473 68.6586 261.634 66.4956C262.795 64.3212 263.376 60.849 263.376 56.0676H277.708C277.708 63.9569 275.932 69.9223 272.392 73.9409C268.84 77.9596 263.193 79.9746 255.452 79.9746C247.711 79.9746 242.041 77.6977 238.455 73.1326C234.869 68.5675 233.082 60.6099 233.082 49.237C233.082 37.8642 235.131 29.9976 239.218 25.3984C243.305 20.7991 249.157 18.4995 256.761 18.4995C263.569 18.4995 268.76 20.4918 272.346 24.4763C275.932 28.4608 277.72 34.0049 277.72 41.0973L277.708 41.0631Z" fill="white"/>
<path d="M281.728 0.876465H296.721V41.8257H296.937L312.032 19.9907H328.54L311.702 43.021L331.033 78.4261H314.526L302.037 54.4167L296.721 61.3725V78.4261H281.728V0.876465Z" fill="white"/>
<path d="M344.512 37.9097H331.044V36.498C331.044 30.2025 332.923 25.6147 336.691 22.7572C340.459 19.8998 345.411 18.4653 351.57 18.4653C359.824 18.4653 365.425 19.9681 368.351 22.9735C371.288 25.979 372.745 30.453 372.745 36.3842V67.1217C372.745 71.6071 373.36 75.3753 374.589 78.4149H360.256C359.608 77.2537 358.993 75.2273 358.412 72.3357H358.196C356.534 75.307 354.576 77.3106 352.333 78.358C350.09 79.4053 347.085 79.929 343.317 79.929C338.535 79.929 334.983 78.2669 332.672 74.9313C330.35 71.5957 329.2 67.6909 329.2 63.2055C329.2 57.7752 330.373 53.7338 332.729 51.0927C335.086 48.4515 339.116 46.334 344.842 44.7402L351.684 42.896C354.291 42.1674 356.067 41.3022 357.001 40.289C357.945 39.2758 358.412 37.7958 358.412 35.8377C358.412 31.0563 356.09 28.6656 351.456 28.6656C346.823 28.6656 344.501 31.2043 344.501 36.2703V37.8983L344.512 37.9097ZM358.412 60.7237V48.9979C357.035 50.0794 355.338 50.9902 353.312 51.7074L350.056 52.9028C347.449 53.8477 345.707 55.0089 344.842 56.375C343.977 57.7411 343.544 59.4829 343.544 61.589C343.544 63.9797 344.011 65.9377 344.956 67.4519C345.901 68.9773 347.313 69.7287 349.191 69.7287C351.582 69.7287 353.711 68.966 355.6 67.4519C357.479 65.9264 358.424 63.6837 358.424 60.7124L358.412 60.7237Z" fill="white"/>
<path d="M408.48 19.991H422.813V75.5007C422.813 83.39 420.911 89.1846 417.109 92.8845C413.307 96.5844 407.102 98.4287 398.484 98.4287C392.109 98.4287 387.203 97.0739 383.765 94.3531C380.327 91.6322 378.607 87.7844 378.607 82.7867H392.94C392.94 84.6651 393.703 86.1564 395.217 87.2379C396.811 88.3194 398.473 88.8659 400.215 88.8659C405.713 88.8659 408.468 85.3481 408.468 78.3354V70.6282H408.252C404.917 75.4096 400.761 77.8003 395.764 77.8003C389.684 77.8003 385.176 75.4779 382.239 70.8445C379.302 66.2111 377.845 58.6748 377.845 48.2468C377.845 44.2623 378.061 40.7331 378.494 37.6594C378.926 34.5856 379.746 31.4891 380.941 28.3698C382.137 25.2619 384.015 22.8371 386.588 21.0953C389.161 19.3535 392.36 18.4883 396.196 18.4883C401.626 18.4883 405.645 21.1636 408.252 26.5256H408.468V20.0024L408.48 19.991ZM392.838 51.0587C392.838 55.7718 393.362 59.4831 394.409 62.1925C395.456 64.902 397.437 66.2681 400.329 66.2681C403.368 66.2681 405.486 64.8223 406.681 61.9193C407.876 59.0277 408.468 54.8952 408.468 49.5332C408.468 42.2928 407.911 37.2268 406.784 34.3238C405.657 31.4322 403.619 29.975 400.647 29.975C397.46 29.975 395.365 31.4436 394.352 34.3693C393.339 37.3065 392.826 42.862 392.826 51.0359L392.838 51.0587Z" fill="white"/>
<path d="M429.552 12.8187V0H444.545V12.8187H429.552ZM429.552 78.4263V19.9908H444.545V78.4263H429.552Z" fill="white"/>
<path d="M450.738 78.4263V19.9908H465.07V26.8328H465.287C468.326 21.2545 473.29 18.4653 480.166 18.4653C490.082 18.4653 495.045 24.0095 495.045 35.0864V78.4263H480.052V38.126C480.052 35.1547 479.54 33.06 478.527 31.8305C477.513 30.601 475.885 29.9862 473.643 29.9862C468.36 29.9862 465.708 33.208 465.708 39.6515V78.4263H450.715H450.738Z" fill="white"/>
<path d="M530.132 19.991H544.465V75.5007C544.465 83.39 542.564 89.1846 538.761 92.8845C534.959 96.5844 528.755 98.4287 520.137 98.4287C513.762 98.4287 508.855 97.0739 505.417 94.3531C501.979 91.6322 500.26 87.7844 500.26 82.7867H514.593C514.593 84.6651 515.355 86.1564 516.869 87.2379C518.463 88.3194 520.125 88.8659 521.867 88.8659C527.366 88.8659 530.121 85.3481 530.121 78.3354V70.6282H529.904C526.569 75.4096 522.414 77.8003 517.416 77.8003C511.337 77.8003 506.829 75.4779 503.891 70.8445C500.954 66.2111 499.497 58.6748 499.497 48.2468C499.497 44.2623 499.713 40.7331 500.146 37.6594C500.579 34.5856 501.398 31.4891 502.594 28.3698C503.789 25.2619 505.667 22.8371 508.24 21.0953C510.813 19.3535 514.012 18.4883 517.849 18.4883C523.279 18.4883 527.297 21.1636 529.904 26.5256H530.121V20.0024L530.132 19.991ZM514.502 51.0587C514.502 55.7718 515.025 59.4831 516.073 62.1925C517.12 64.902 519.101 66.2681 521.992 66.2681C525.032 66.2681 527.149 64.8223 528.345 61.9193C529.54 59.0277 530.132 54.8952 530.132 49.5332C530.132 42.2928 529.574 37.2268 528.447 34.3238C527.32 31.4322 525.282 29.975 522.311 29.975C519.124 29.975 517.029 31.4436 516.016 34.3693C515.002 37.3065 514.49 42.862 514.49 51.0359L514.502 51.0587Z" fill="white"/>
<path d="M551.103 78.4261V0.876465H566.745V30.5325H584.993V0.876465H600.635V78.4261H584.993V43.9887H566.745V78.4261H551.103Z" fill="#BD6FF5"/>
<path d="M636.699 78.4262V71.5843H636.483C633.444 77.1625 628.48 79.9517 621.604 79.9517C611.677 79.9517 606.725 74.4076 606.725 63.3307V19.9907H621.718V60.2911C621.718 63.2624 622.219 65.3571 623.243 66.5979C624.256 67.8274 625.884 68.4422 628.127 68.4422C633.409 68.4422 636.062 65.2204 636.062 58.7769V20.0021H651.055V78.4376H636.722L636.699 78.4262Z" fill="#BD6FF5"/>
<path d="M656.679 78.4261V0.876465H671.672V25.421H671.888C674.996 20.7876 679.197 18.4652 684.49 18.4652C690.649 18.4652 695.169 20.89 698.072 25.7397C700.964 30.5894 702.421 38.4104 702.421 49.2027C702.421 59.995 700.975 67.816 698.072 72.6657C695.18 77.5154 690.649 79.9402 684.49 79.9402C678.764 79.9402 674.347 77.3674 671.239 72.2217H671.023V78.4148H656.69L656.679 78.4261ZM673.3 34.4942C672.218 37.4997 671.672 42.4063 671.672 49.2141C671.672 56.0219 672.218 60.9285 673.3 63.934C674.381 66.9394 676.487 68.4421 679.595 68.4421C682.703 68.4421 684.786 66.9394 685.845 63.934C686.893 60.9285 687.416 56.0219 687.416 49.2141C687.416 42.4063 686.893 37.4997 685.845 34.4942C684.798 31.4888 682.715 29.986 679.595 29.986C676.476 29.986 674.381 31.4888 673.3 34.4942Z" fill="#BD6FF5"/>
</svg>
