<svg width="707" height="138" viewBox="0 0 707 138" fill="none" xmlns="http://www.w3.org/2000/svg">
<path d="M116.245 0.409668V79.314L114.492 80.2703L58.0711 111.031V138H0V0.409668H31.0335V48.2008L57.7979 33.6061L58.0711 33.7541L82.8205 47.2559V0.409668H116.245Z" fill="#2D1E41"/>
<path d="M82.8202 0.409668V47.2559L58.0708 33.7541V33.4695L57.7976 33.6061L31.0332 48.2008V0.409668H82.8202Z" fill="#BD6FF5"/>
<path d="M140.3 78.4266V0.876953H167.668C175.057 0.876953 180.453 3.10833 183.857 7.55958C187.261 12.0108 188.957 17.5322 188.957 24.1237C188.957 31.9447 186.771 37.7961 182.388 41.6668C178.005 45.5374 171.983 47.4728 164.298 47.4728H155.931V78.4266H140.289H140.3ZM155.942 12.3865V35.9519H162.898C166.086 35.9519 168.613 34.9729 170.503 33.0262C172.381 31.0681 173.326 28.1765 173.326 24.34C173.326 16.371 169.706 12.3865 162.466 12.3865H155.954H155.942Z" fill="#2D1E41"/>
<path d="M205.247 37.9092H191.78V36.4975C191.78 30.202 193.658 25.6142 197.426 22.7567C201.195 19.8993 206.147 18.4648 212.306 18.4648C220.559 18.4648 226.16 19.9676 229.086 22.973C232.023 25.9785 233.48 30.4525 233.48 36.3837V67.1212C233.48 71.6066 234.095 75.3748 235.325 78.4144H220.992C220.343 77.2532 219.728 75.2268 219.148 72.3352H218.931C217.269 75.3065 215.311 77.3101 213.068 78.3574C210.826 79.4048 207.82 79.9285 204.052 79.9285C199.271 79.9285 195.719 78.2664 193.408 74.9308C191.085 71.5952 189.936 67.6904 189.936 63.205C189.936 57.7747 191.108 53.7333 193.465 51.0922C195.821 48.451 199.851 46.3335 205.578 44.7397L212.419 42.8955C215.026 42.1669 216.802 41.3017 217.736 40.2885C218.681 39.2753 219.148 37.7953 219.148 35.8372C219.148 31.0559 216.825 28.6652 212.192 28.6652C207.558 28.6652 205.236 31.2039 205.236 36.2698V37.8978L205.247 37.9092ZM219.159 60.7232V48.9974C217.781 50.079 216.085 50.9897 214.059 51.7069L210.803 52.9022C208.196 53.8471 206.454 55.0083 205.589 56.3744C204.724 57.7405 204.291 59.4823 204.291 61.5884C204.291 63.9791 204.758 65.9373 205.703 67.4514C206.648 68.9769 208.059 69.7282 209.938 69.7282C212.328 69.7282 214.457 68.9655 216.347 67.4514C218.225 65.9259 219.17 63.6831 219.17 60.7118L219.159 60.7232Z" fill="#2D1E41"/>
<path d="M282.261 41.0631H267.928C267.928 33.2421 265.686 29.3373 261.189 29.3373C257.717 29.3373 255.417 30.84 254.29 33.8455C253.163 36.8509 252.605 42.008 252.605 49.328C252.605 56.6481 253.152 62.1468 254.233 65.1864C255.315 68.226 257.455 69.7514 260.642 69.7514C263.181 69.7514 265.025 68.6585 266.187 66.4955C267.348 64.3211 267.928 60.849 267.928 56.0676H282.261C282.261 63.9569 280.485 69.9222 276.945 73.9409C273.393 77.9595 267.746 79.9745 260.005 79.9745C252.264 79.9745 246.594 77.6977 243.008 73.1326C239.422 68.5675 237.635 60.6099 237.635 49.237C237.635 37.8641 239.684 29.9976 243.771 25.3984C247.858 20.7991 253.709 18.4995 261.314 18.4995C268.122 18.4995 273.313 20.4918 276.899 24.4762C280.485 28.4607 282.272 34.0049 282.272 41.0972L282.261 41.0631Z" fill="#2D1E41"/>
<path d="M286.281 0.876953H301.274V41.8262H301.491L316.586 19.9912H333.093L316.256 43.0215L335.586 78.4266H319.079L306.591 54.4172L301.274 61.3729V78.4266H286.281V0.876953Z" fill="#2D1E41"/>
<path d="M349.064 37.9092H335.596V36.4975C335.596 30.202 337.475 25.6142 341.243 22.7567C345.011 19.8993 349.963 18.4648 356.122 18.4648C364.376 18.4648 369.977 19.9676 372.902 22.973C375.84 25.9785 377.297 30.4525 377.297 36.3837V67.1212C377.297 71.6066 377.912 75.3748 379.141 78.4144H364.808C364.159 77.2532 363.545 75.2268 362.964 72.3352H362.748C361.086 75.3065 359.127 77.3101 356.885 78.3574C354.642 79.4048 351.637 79.9285 347.868 79.9285C343.087 79.9285 339.535 78.2664 337.224 74.9308C334.902 71.5952 333.752 67.6904 333.752 63.205C333.752 57.7747 334.925 53.7333 337.281 51.0922C339.638 48.451 343.668 46.3335 349.394 44.7397L356.236 42.8955C358.843 42.1669 360.619 41.3017 361.552 40.2885C362.497 39.2753 362.964 37.7953 362.964 35.8372C362.964 31.0559 360.642 28.6652 356.008 28.6652C351.375 28.6652 349.052 31.2039 349.052 36.2698V37.8978L349.064 37.9092ZM362.964 60.7232V48.9974C361.586 50.079 359.89 50.9897 357.864 51.7069L354.608 52.9022C352.001 53.8471 350.259 55.0083 349.394 56.3744C348.529 57.7405 348.096 59.4823 348.096 61.5884C348.096 63.9791 348.563 65.9373 349.508 67.4514C350.453 68.9769 351.864 69.7282 353.743 69.7282C356.133 69.7282 358.262 68.9655 360.152 67.4514C362.03 65.9259 362.975 63.6831 362.975 60.7118L362.964 60.7232Z" fill="#2D1E41"/>
<path d="M413.033 19.991H427.366V75.5007C427.366 83.39 425.465 89.1845 421.663 92.8844C417.86 96.5843 411.656 98.4285 403.038 98.4285C396.663 98.4285 391.756 97.0739 388.318 94.353C384.88 91.6322 383.161 87.7843 383.161 82.7866H397.494C397.494 84.665 398.257 86.1564 399.771 87.2379C401.365 88.3194 403.027 88.8658 404.769 88.8658C410.267 88.8658 413.022 85.3481 413.022 78.3354V70.6282H412.806C409.47 75.4096 405.315 77.8003 400.317 77.8003C394.238 77.8003 389.73 75.4779 386.793 70.8445C383.856 66.2111 382.398 58.6747 382.398 48.2468C382.398 44.2623 382.615 40.7331 383.047 37.6593C383.48 34.5856 384.3 31.4891 385.495 28.3698C386.69 25.2619 388.569 22.837 391.142 21.0953C393.714 19.3535 396.913 18.4883 400.75 18.4883C406.18 18.4883 410.199 21.1636 412.806 26.5256H413.022V20.0024L413.033 19.991ZM397.392 51.0586C397.392 55.7717 397.915 59.483 398.963 62.1925C400.01 64.9019 401.991 66.268 404.882 66.268C407.922 66.268 410.039 64.8223 411.235 61.9193C412.43 59.0277 413.022 54.8952 413.022 49.5332C413.022 42.2928 412.464 37.2267 411.337 34.3238C410.21 31.4322 408.172 29.975 405.201 29.975C402.014 29.975 399.919 31.4436 398.906 34.3693C397.892 37.3065 397.38 42.8619 397.38 51.0359L397.392 51.0586Z" fill="#2D1E41"/>
<path d="M434.105 12.8187V0H449.099V12.8187H434.105ZM434.105 78.4262V19.9908H449.099V78.4262H434.105Z" fill="#2D1E41"/>
<path d="M455.292 78.4258V19.9904H469.625V26.8323H469.841C472.881 21.254 477.845 18.4648 484.721 18.4648C494.636 18.4648 499.6 24.009 499.6 35.0859V78.4258H484.607V38.1255C484.607 35.1542 484.095 33.0595 483.081 31.83C482.068 30.6005 480.44 29.9857 478.197 29.9857C472.915 29.9857 470.263 33.2074 470.263 39.6509V78.4258H455.27H455.292Z" fill="#2D1E41"/>
<path d="M534.684 19.991H549.017V75.5007C549.017 83.39 547.115 89.1845 543.313 92.8844C539.511 96.5843 533.306 98.4285 524.689 98.4285C518.313 98.4285 513.407 97.0739 509.969 94.353C506.531 91.6322 504.812 87.7843 504.812 82.7866H519.144C519.144 84.665 519.907 86.1564 521.421 87.2379C523.015 88.3194 524.677 88.8658 526.419 88.8658C531.917 88.8658 534.672 85.3481 534.672 78.3354V70.6282H534.456C531.121 75.4096 526.965 77.8003 521.968 77.8003C515.888 77.8003 511.38 75.4779 508.443 70.8445C505.506 66.2111 504.049 58.6747 504.049 48.2468C504.049 44.2623 504.265 40.7331 504.698 37.6593C505.13 34.5856 505.95 31.4891 507.145 28.3698C508.341 25.2619 510.219 22.837 512.792 21.0953C515.365 19.3535 518.564 18.4883 522.4 18.4883C527.831 18.4883 531.849 21.1636 534.456 26.5256H534.672V20.0024L534.684 19.991ZM519.053 51.0586C519.053 55.7717 519.577 59.483 520.624 62.1925C521.672 64.9019 523.653 66.268 526.544 66.268C529.584 66.268 531.701 64.8223 532.897 61.9193C534.092 59.0277 534.684 54.8952 534.684 49.5332C534.684 42.2928 534.126 37.2267 532.999 34.3238C531.872 31.4322 529.834 29.975 526.863 29.975C523.675 29.975 521.581 31.4436 520.567 34.3693C519.554 37.3065 519.042 42.8619 519.042 51.0359L519.053 51.0586Z" fill="#2D1E41"/>
<path d="M555.654 78.4266V0.876953H571.296V30.533H589.545V0.876953H605.187V78.4266H589.545V43.9892H571.296V78.4266H555.654Z" fill="#BD6FF5"/>
<path d="M641.254 78.4262V71.5842H641.038C637.998 77.1625 633.035 79.9516 626.159 79.9516C616.231 79.9516 611.279 74.4075 611.279 63.3306V19.9907H626.272V60.291C626.272 63.2623 626.773 65.357 627.798 66.5979C628.811 67.8274 630.439 68.4421 632.682 68.4421C637.964 68.4421 640.616 65.2204 640.616 58.7769V20.0021H655.61V78.4375H641.277L641.254 78.4262Z" fill="#BD6FF5"/>
<path d="M661.232 78.4266V0.876953H676.225V25.4214H676.442C679.55 20.788 683.75 18.4657 689.044 18.4657C695.203 18.4657 699.723 20.8905 702.626 25.7402C705.517 30.5899 706.974 38.4109 706.974 49.2032C706.974 59.9954 705.529 67.8164 702.626 72.6661C699.734 77.5158 695.203 79.9407 689.044 79.9407C683.318 79.9407 678.901 77.3679 675.793 72.2222H675.577V78.4152H661.244L661.232 78.4266ZM677.853 34.4947C676.772 37.5002 676.225 42.4068 676.225 49.2146C676.225 56.0223 676.772 60.929 677.853 63.9344C678.935 66.9398 681.041 68.4426 684.149 68.4426C687.257 68.4426 689.34 66.9398 690.399 63.9344C691.446 60.929 691.97 56.0223 691.97 49.2146C691.97 42.4068 691.446 37.5002 690.399 34.4947C689.352 31.4893 687.268 29.9865 684.149 29.9865C681.03 29.9865 678.935 31.4893 677.853 34.4947Z" fill="#BD6FF5"/>
</svg>
